<?xml version="1.0" encoding="UTF-8"?>
<svg id="Capa_2" data-name="Capa 2" xmlns="http://www.w3.org/2000/svg" viewBox="0 0 385.12 341.49">
  <defs>
    <style>
      .cls-1 {
        fill: #ffa167;
      }

      .cls-1, .cls-2 {
        stroke-width: 0px;
      }

      .cls-2 {
        fill: #a2ffb3;
      }
    </style>
  </defs>
  <g id="cerebro">
    <g>
      <g>
        <path class="cls-2" d="M379.79,247.92c4.45-9.74,3.86-12.93,1.12-22.96-.47-1.71-1.16-3.38-2.18-4.87,10.89-12.8,7.39-31.27-6.79-44.47.45-17.04-8.09-38.79-29.36-43.8-.76-1.11,4.02-10.49-5.1-23.38-10.16-16.23-66.65-42.55-88.73-37.12-18.33-8.67-33.63-2.51-35.53-2.79-9.78-5.49-26.7-8.48-38.89-4.21-1.12.03-3.84-3.56-20.82,1.74-29.66-5.28-106.6,18.73-101.85,50.57-20.61,3.65-32.07,23.8-32.74,41.03-13.7,10-19.64,30.63-11.49,42.8-.19.27-1.55,3.9-1.91,4.7.38-.36.72-.66,1.03-.92-.31.26-.65.56-1.03.92-2.59,5.78-3.16,9.64-2.76,15.8.19,2.93,1.1,5.64,1.66,8.41-8.96,17.96-3.67,41.14,10.18,49.27,0,.02-.01.04-.02.06,3.09,1.76,6.08,4.22,9.04,6.57,4.56,3.62,9.34,7.35,13.72,11.96,2.37,2.5,4.25,5.4,6.01,8.45.19.33.37.66.56.99,1.07.96,1.96,2.26,2.76,3.54.17.27.33.56.49.84.9,1.01,1.79,2.06,2.68,3.14.85,1.04,1.7,2.08,2.57,3.12,2.88,3.44,5.9,6.71,9.63,8.63.5.26.89.57,1.23.92,5.22,1.82,10.78,2.88,16.45,3.01,3.25-.73,6.49-1.86,9.82-2.97.22-.1.44-.21.65-.32,2.9-1.64,5.96-3.87,9.05-6.96,4.67,4.27,10.22,7.2,15.92,9.87,0,.04-.01.08-.02.12.3.12.59.26.88.4.46.09.89.23,1.28.42,3.7.7,7.38,1.58,11.15,2.09.22-.07.42-.15.66-.19,0,0,0,0,0,0,.09-.02.18-.04.27-.05,13.45-1.35,27.99-4.51,39.01-13.87,2.73-2.32,7.02-1.44,8.57,1.61.13-.05.27-.1.4-.15,1.78-.55,4.1.38,5.37,1.86.74.02,1.52.23,2.29.69,1.2-.2,2.52.09,3.81,1.1,5.85,4.56,12.37,7.68,19.21,9.91.9-.22,1.91-.2,2.99.13,11.73,3.64,24,2.13,35.71-.35.74-.16,1.42-.17,2.04-.07,1.59-.29,3.19-.42,4.84-.23,3.62.43,6.68,2.44,9.68,4.28.47.16.94.38,1.41.69,2.49,1.67,5.57,2.85,8.86,3.57,7.01.26,14.29-.95,21.41-2.52.06-.02.1-.04.16-.06.75-.12,2.34-.87,3.31-1.23,7.44-2.82,23.31-13.74,29.87-19.17.53-.4,1.05-.72,1.55-.98.47-.57,1.06-1,1.76-1.2.51-.15.98-.38,1.49-.52.08-.02.16-.04.23-.05.24-.19.54-.4.95-.59,1.74-.46,3.47-.99,5.19-1.55.09-.04.17-.09.27-.13,3.49-1.45,6.91-2.98,9.94-5.21.92-.68,1.81-1.39,2.69-2.09.99-1.1,1.97-2.22,2.89-3.38.37-.47.8-.83,1.25-1.12,2.02-1.88,4.55-3.05,6.98-3.95.26-.1.53-.16.79-.2,16.85-9.61,24.36-28.8,15.47-49.57ZM341.33,142.67c16.05-8.88,24.72,27.63,22.25,28.94-1.94-.95-4.09-1.83-6.17-2.11-3.41-.45-7.12-.72-8.55,2.41.4.69,4.71.36,11.95,4.23,9.08,4.84,17.28,16.1,16.81,25.88-.28,6.3-3.41,10.41-3.83,11.94,0,0,0,0,0,0-1.11-.21-1.65-1.41-1.74-1.48-.99-.84-6.15-4.1-6.29-4.46q.59-6.15,1.17-12.25c-.8-.88-5.37,5.17-9.63,7.81,0,0,0,0,0,0-3.3,2.03-5.96,3.05-10.08,3.53,0,0,0,0,0,0-1.5.17-3.26.09-4.51.97-12.69-6.64-27.17-7.48-41.41-6.07,8.93-19.44,5.42-27.43.62-45.17-2-7.22-4.13-8.43,3.56-15.24,7.13-10.32,30.57-17.32,35.85,1.08ZM374.22,218.3s0,0,0,0q-.62.2-1.24.4c-.08-.13-.17-.24-.27-.35.1.11.19.22.27.35q.62-.2,1.24-.4ZM284.73,206.27c-.63.31-1.33.54-2.12.48-11.31,7.34-13.81,4.27-26.8-.4-1.83-16.56-11.98-29.94-29.75-35.86,0,0,0,0,0,0-21.18-6.96-30.02,1.38-26.63-7.73,3.67-1.93,7.47-3.3,11.48-4.6,1.75-.57,3.66-.63,5.36-1.3-1.23-2.81-2.46-3.56-2.55-3.76q-6.21,1.13-12.43,2.31c-.22-6.06-.29-9.24,3.16-14.6,2.96-4.59,8.23-7.72,13.21-10.52,3.01-1.69,4.33-2.62,7.9-3.87,39.3-13.83,77.85,21.96,73.55,55.12-1.26,10-7.39,19.32-16.49,25.2.79.05,1.49-.17,2.12-.48ZM195.14,210.72q.22-16.07.45-31.68c3.44-2.88,7.98-4.79,12.71-5.45,8.45-1.16,13.43.51,20.54,4.57,5.91,3.38,11.17,9.14,13.74,14.93,2.31,5.18,3.71,10.45,1.44,15.86,10.85,3.93,24.75,2.31,24.87,16.25.03,2.28-2.51,17.56-4.06,18.09-.32.1-6.71-.68-7.03-.83-1.2-.54-.84-6.68-15.63-19.8-3.27-1.75-6.51-3.26-9.98-4.67-3.27-1.32-5.03-1.9-8.44-2.85-.04.32-.12.61-.23.87.11-.27.18-.56.23-.87-18.01-5-27.88-3.27-28.62-4.41ZM220.09,218.49c-.66.17-1.39.29-2.16.38.77-.09,1.5-.21,2.16-.38ZM215.45,77.97c3.81-10.58,23.53-6.49,33.36-1.04,10.86,6.15,1.03,10.5,15.47,7.34q.41-3.41.81-6.73c6.86-2.32,77.71,25.61,68.2,48.75-2.19-.03-4.35-.28-6.56-.19-6.06.27-8.35.26-14.01,2.29-6.53,2.35-11.66,6.18-16.02,10.82-1.93,2.06-3.17,4.9-3.52,4.95q-2.77-2.27-5.56-4.52c-18.39-16.62-40.25-22.67-66.28-17.49,0,0,0,0,0,0-6.14,1.21-18.88,5.47-23.43,8.75-.47-6.53-.51-7.8-6.87-11.33-1.88-1.02-2.37,1.97-2.38-4.39-.02-8.16,2.16-22.6,7.9-28.23.67-1.52,1.8-2.8,3.32-3.95,3.15-2.39,10.76-4.56,15.57-5.02ZM140.61,71.54c-.48.92-1.49,1.33-2.06,2.3-.8,1.36-1.76,2.94-2.39,4.36-1.44,3.26-2.33,5.97-2.88,9.45-19.28,1.68-39.06,6.57-54.42,17.28.16.27-.59.77.71.8,4.02-.1,36.13-18.74,83.88-5.73,1.58-.35.46-3.87.36-4.78-6.8-4.01-17.42-5.5-20.9-6.81-1.47-1.94-1.27-3.93-.74-6.09,2.58-10.52,26.64-18.43,29.9-11,8.51-6.24,21.05-6,31.26-1.91,1.82.75,1.84.72,3.11,1.84-9.95,1.46-15.07,4.42-19.88,10.12-3.36,4-5.07,7.1-6.67,11.87-1.92,5.75-2.58,11.87-3.96,18.14-.55,2.51-.4,5.12-1.75,7.64-10.57-5.96-24.6-8.44-37.7-8.35-.16.25-.29.48-.38.69.1-.22.22-.45.38-.69-16.51.12-33.84,4.89-44.41,16.82-1.02.2-3.8-4.81-4.49-5.45-4.71-4.45-10.82-7.82-18.04-9.1,0,0,0,0,0,0-1.9-.34-8.09-.09-8.3-.35-.7-27.62,76.52-44.94,79.36-41.04ZM24.24,162.04c10.1-6.24,15.29-4.36,16.24-5.01.18-.11-.13-3.55-.3-3.68-.26-.2-6.02.09-6.89.13-2.15.07-3.75.27-5.87.98-2.03-1.15,6.39-31.92,23.23-28.13,5.12-9.72,14.45-10.29,22.9-6.3-1.07-2.39-6.35-2-6.47-3.86.11,1.86,5.4,1.47,6.47,3.86,4.85,2.29,8.56,6.81,10.99,11.11.36.63,2.38,2.56,2.37,2.75-11.25,17.03-13.39,38.34-8.35,56.66-33.16-6.44-42.06,11.85-59.27-12.97-.9.77.76,10.34,1.38,11.83-2.74,2.26-5.91,3.81-8.44,6.2-1.18-1.94-1.47-4.31-1.67-6.76-.9-11.16,3.55-20.47,13.67-26.81ZM10.07,206.53c-.2.15-.38.28-.53.39.16-.11.34-.24.53-.39.37-.29,1.15-4.33,2.19-3.32,4.21-7.49,9.24-10.49,14.8-5.15.37.35,2.6,1.85,2.59,2.22-3.59,4.12-7.82,10.5-9.59,15.57-4.63,13.38-.43,18.08-6.4,19.16,0,0,0,0,0,0-1.67-2.13-3.94-8.37-4.4-11.16-1.1-6.93-.77-13.89,3-20.64-1.04-1.01-1.83,3.03-2.19,3.32ZM4.56,253.36c-.78-6.54-.49-12.85,2.57-19.07,2.74,3.7-.71,7.29.7,18.75.57,4.7,2.81,11.7,4.37,16.19-4.46-3.2-6.84-9.46-7.63-15.87ZM41.74,292.3c-5.98-1.56-10.81-8.29-10.48-15.43-.28.45-2.32.86-3.47,4.24-3.15-2.16-6.6-3.34-9.03-6.57-.75-.98-1.75-1.2-2.37-3.88,1.43-9.7-12.5-28.68.67-30.9,1.99,14.4,12.95,29.99,27.11,30.42-1.3,19.26,11.83,25.82-2.42,22.12ZM126.32,322.65c-9.63-1.25-20.84-7.57-25.55-16.34-1.29-2.41-1.32-4.59-1.42-4.82-3.72-8.89-5.79-16.47-5.93-26.29-8.83-5.77-4.65,19.15-1.21,28.33.86,2.3,2.68,4.5,3.4,6.95-.13.27.76.77.47,1.87-10.15,12.76-26.8,13.57-37.56,3.09-5.17-5.02-8.45-11.69-5.49-18.95.91-2.22,1.1-3.15,3.19-4.45-6.43-8.39-6.04-18.68-2.5-28.8.62-1.77,3.3-8.06,4.35-8.92-2.23-3.41-3.78-9.47-3.92-13.65-9.16-9.58-10.76-8.69-3.84-22.37-24.77,13.43,10.48,37.77-4.07,41.9-9.35,2.26-25-8.36-24.57-29.88-.69-40.22,49.05-46.07,71.45-28.26,11.23,9.16,7.86,12.11,9.01,26.41-.57,1.05-11.2,1.04-21.64,9.8-8.59,7.19-15.6,18.88-17.49,29.61-1.52,8.53-1.85,19.39,1.08,27.6,2.73,7.61,5.07,7.01,12.59,6.4,1.4-1.74-14.94-15.43-4.85-41.07,3.06-7.67,6.9-12.48,13.54-17.59,20.09-15.47,45.41-10.53,65.99,2.44,3.36,2.11,6.35,4.55,9.67,6.75,1.35,2.23,5.31,5.63,8.76,12.27,15.15,29.44-9.49,62.56-43.48,57.97ZM108.04,227.55c-.82-1.86-.6-12.64-.17-15.18,1.6-9.76,9.28-18.72,19.06-22.94,17.46-7.57,37.86-2.32,47.59,12.52,6.33,9.66,4.66,15.46.79,25.92-3.11,8.48-6.28,13.33-12.82,19.76-13.51-12.02-36.21-19.05-53.73-18.54-1.03-.69-.65-1.39-.71-1.54ZM182.21,192.78c-6.27-6.19-14.71-15.39-24.32-17.28-7.87-1.65-31.04,8.13-37.78,13.06-3.76,2.65-8.63,7.59-11.16,11.34-19.06-4.4-27.79-17.78-25.2-35.87-1.26-12.72,9.36-35.27,22.53-43.05,16.86-10.16,37.9-6.5,54.35-.47,0,0,0,0,0,0,10.93,4.01,23.25,10.65,27.58,20.42,2.08,4.71,3.46,10.98,1.31,16.04-1.78-1.91-3.22-4.21-5.21-5.93-13.8-11.89-35.76-12.28-54.21-11.65q-3.14-4.49-6.25-8.9c-1.53-.24-6.55,3.3-7.91,4.3,1.75,5,3.65,10.16,5.02,15.47.41,1.61.92,3.4.61,5.16,11.54-11.09,36.08-10.46,49.11-3.4,14.88,7.96,18.91,28.32,12.79,42.85-.85-.46-.77-1.62-1.26-2.1ZM181.02,274.31c-1.8-13.82-2.15-32.98,8.43-43.61,3.48-3.51,8.64-6.43,13.38-8.2.43-.55.96-1.01,1.56-1.38-.6.38-1.13.83-1.56,1.38,3.24-1.21,5.98-2.06,9.48-2.5,3.05-.37,4.96-.67,8.15-.41,15.27,1.26,25.62,9.39,32,21.99-.41,1.03-14.65.65-23.79,2.72-8.35,1.86-17.01,5.88-24.44,9.92,0,0,0,0,0,0-7.87,4.28-12.53,6.96-18.24,14.04-1.42,1.77-2.51,4.28-3.7,6.29-.64-.12-.63-.12-1.27-.24ZM292.86,332.08c-.1.04-.72,1.09-1.77,1.42-5.37,1.68-11.13,1.98-16.68.83-5.77-1.2-10.97-4.9-14.7-9.52,1.3-.76,1.78-2.15,2.55-3.3,0,0,0,0,0,0,.22-.33,3.36-3.22,5.05-6.04.73-1.23,3.24-5.36,3.37-5.66,3.22-7.27,5.94-19.92-.45-26.33-5.87-2.9,1.71,7.02-7.05,24.4-.95,1.89-3.79,6.04-5.24,7.68t0,0c-20.1,22.77-62.55,14.44-72.77-4.27-6.88-12.73,2.59-30.47,10.86-40.74,5.52-6.9,11.59-12,19.63-15.99.63-.31,1.17-.65,1.8-.94,31.7-14.37,89.14-7.1,82.4,34.26-3.58,24.1-26.14,27.04-9.43,27.02,15.73-.02,19.01-31.85,15.65-43.35-1.83-6.37-8.47-15.65-13.54-20.25-1.04-.95-1.89-1.73-3.04-2.58-5.62-4.14-10.46-6.01-17.04-8.47,1.3-9.32,3-16.96,9.72-23.72.75-.57,1.64-1.17,2.43-1.73,3.08-2.21,5.47-4.21,9-5.87,35.44-16.06,77.81,15.2,64.02,49.53-5.84,15.79-28.55,20.74-31.37,19.03-.36-.24-1.12-2.91-.66-5.17,2.03-9.71,25.33-26.55,6.03-19.77-1.15.41-1.52.19-1.59.22-.96.43-4.91,4.09-5.86,5.25-10.03,12.18-2.66,18.78-2.21,26.76.58,10.47-3.11,16.21-11.18,22.24,4.28,11.13-8.59,21.11-17.95,25.06ZM359.54,291.36c-1.01,1.79-2.91,2.4-4.31,3.59-11.54,9.86-10.49,3.49-15.49-1.29.03,1.49.97,6.36,1.34,8.46-2.95,1.99-6.27,3.29-9.62,4.53-1.37.5-3.56,1.49-3.75,1.55-.9.24-8.61,1.83-8.85,1.07,6.27-4.58,10.09-12.45,9.36-20.52,17.01-2.54,30.27-14.53,36.35-29.72,16.11,7.68-6.36,20.64-5.04,32.33ZM374.98,242.31c-.23.85-.46,1.52-.76,2.32-.58,1.55-4.53,8.82-4.93,9.14-5.03,3.9-3.37-7.33-3.6-9.06-1.26-9.47-6.51-19.65-13.02-27.03,1.2-.37,2.29-1.26,3.25-1.98,8.05-5.97,10.23-1.05,14.15,1.19,5.3,8.95,7.43,15.92,4.91,25.42ZM382.36,232.14c-.15-.75-.39-1.57-.62-2.4.24.83.47,1.65.62,2.4Z"/>
        <path class="cls-2" d="M221.38,107.28c2.29.48,26.23-3.31,42.42.04,6.6,1.35,26.45,10.74,2.27-3.25,16.98-3.22,50.74,15.31,52.45,14.18-1.04-1.12-2.25-2.11-3.07-3.34-37.08-23.72-54.68-15.76-95.33-9.36.5.53.43,1.31,1.26,1.73Z"/>
      </g>
      <path class="cls-1" d="M122.77,88.6c1.16-12.54,5.17-25.19,13.59-34.55,8.41-9.37,21.74-14.86,33.95-11.8,11.25,2.82,19.8,12.14,25.45,22.26,6.18,11.06,9.73,23.75,9,36.39s-5.95,25.18-15.24,33.8-22.72,12.91-35.09,10.2-23.09-12.8-25.53-25.23c13.68-8.36,27.36-16.73,41.04-25.09-15.27-7.39-47.17-5.97-47.17-5.97Z"/>
      <path class="cls-1" d="M301.94,130.58c.23-10.45-4.38-20.9-12.25-27.77-13.74,8.96-27.48,17.92-41.22,26.87-1.27.83-2.61,1.74-3.22,3.13-.88,2.02.07,4.35,1.18,6.26,5.32,9.16,14.71,15.86,25.11,17.91s21.63-.59,30.03-7.05c-7.97-3.44-15.94-6.89-23.91-10.33,7.4-2.22,14.8-4.45,22.2-6.67"/>
      <path class="cls-1" d="M116.19,55.5c.05-.48.1-.96.17-1.44l-.32,2.39c.58-4.3,1.74-8.48,3.41-12.49l-.91,2.15c1.8-4.22,4.13-8.18,6.92-11.81l-1.41,1.82c2.83-3.63,6.08-6.89,9.7-9.73l-1.82,1.41c3.64-2.81,7.6-5.16,11.83-6.96l-2.15.91c4.23-1.76,8.65-2.94,13.18-3.56l-2.39.32c5-.65,10.05-.63,15.06.02l-2.39-.32c5.27.72,10.41,2.13,15.33,4.18l-2.15-.91c4.66,1.98,9.04,4.52,13.06,7.61l-1.82-1.41c3.88,3.03,7.34,6.54,10.36,10.42l-1.41-1.82c3.31,4.31,6.04,9.03,8.18,14.02l-.91-2.15c2.32,5.51,3.9,11.28,4.7,17.2l-.32-2.39c.58,4.51.72,9.05.37,13.58-.17,2.19,1.12,4.85,2.64,6.36s4.12,2.74,6.36,2.64,4.74-.87,6.36-2.64,2.45-3.87,2.64-6.36c2.05-26.86-11.73-54.76-35.54-67.89-11.7-6.46-25.63-9.73-38.98-8.32-7.38.78-14.18,2.58-20.92,5.71-5.71,2.65-10.98,6.41-15.59,10.68-5.12,4.74-9.56,10.51-12.76,16.72-3.6,6.99-5.68,14.26-6.48,22.06-.22,2.16,1.16,4.89,2.64,6.36,1.56,1.56,4.12,2.74,6.36,2.64s4.74-.87,6.36-2.64c1.71-1.86,2.38-3.86,2.64-6.36h0Z"/>
      <g>
        <path class="cls-2" d="M228.3,110.93c1.65,3.3,5.27,5.32,8.94,5.69s7.36-.7,10.66-2.33c10.15-5.01,16.94-14.8,23.08-24.3,6.14-9.51,12.44-19.49,22.15-25.31,9.71-5.82,23.94-5.85,30.87,3.1"/>
        <path class="cls-1" d="M223.12,113.96c2.36,4.48,7.19,7.67,12.16,8.41,5.9.88,11.51-.64,16.72-3.44,8.1-4.36,14.21-11.49,19.46-18.89,2.49-3.51,4.78-7.16,7.14-10.77,1.19-1.82,2.4-3.63,3.65-5.41.59-.83,1.18-1.66,1.79-2.47.16-.22.33-.43.49-.65.49-.65-.7.88-.19.25.38-.47.76-.95,1.14-1.42,1.32-1.6,2.71-3.15,4.2-4.61.71-.7,1.45-1.38,2.2-2.03.4-.35.82-.68,1.23-1.02.84-.69-.22.13-.27.2.13-.23.6-.44.81-.59,1.6-1.14,3.28-2.17,5.06-3,1.3-.6-.99.37-.03,0,.43-.17.85-.33,1.28-.48.92-.32,1.85-.59,2.8-.82.5-.12,1-.23,1.51-.32.17-.03.34-.06.51-.09.99-.17.01.01-.41.04,1.02-.07,2.03-.2,3.06-.21s2.02.06,3.03.13c.43.03,1.01.26-.6-.09.27.06.55.08.82.13.49.09.97.19,1.45.31.94.23,1.86.71,2.8.89-.07-.01-1.4-.65-.54-.22.19.1.39.18.58.28.48.24.95.5,1.41.78.37.23.72.48,1.08.72.79.53-.39-.28-.44-.35.15.19.43.36.62.53.78.7,1.49,1.47,2.14,2.29.89,1.12,2.88,1.76,4.24,1.76,1.47,0,3.23-.65,4.24-1.76s1.83-2.64,1.76-4.24c-.08-1.69-.72-2.92-1.76-4.24-5.09-6.45-13.84-9.29-21.84-8.87-9.09.47-17.07,4.39-23.76,10.44s-11.5,13.59-16.29,21.01c-2.3,3.56-4.64,7.08-7.17,10.48-.62.84.1-.15.2-.26-.18.2-.33.42-.5.63-.33.42-.67.84-1.01,1.25-.68.82-1.38,1.63-2.1,2.41-1.43,1.56-2.94,3.04-4.56,4.41-.33.28-.82.88-1.22,1,.7-.21.79-.6.27-.22-.27.19-.53.39-.8.57-.97.68-1.97,1.31-3.01,1.89-.52.29-1.05.57-1.58.84-.27.13-.53.25-.8.38-.91.43.2-.1.21-.08.05.14-3.47,1.09-3.82,1.16-.19.04-.65.18-.87.15l.72-.1c-.22.02-.44.04-.66.05-.66.04-1.32,0-1.98,0-.78,0-.24-.37.42.08-.2-.14-.67-.13-.91-.18-.51-.12-1.08-.44-1.6-.49.14.01,1.3.64.41.16-.22-.12-.44-.22-.65-.35s-.41-.26-.63-.39c-1.04-.59.67.63.19.17-.14-.13-1.04-1.16-1.16-1.15.39-.01.69,1.07.28.34-.18-.32-.38-.62-.55-.95-1.46-2.78-5.57-3.85-8.21-2.15-2.83,1.82-3.72,5.23-2.15,8.21h0Z"/>
      </g>
    </g>
  </g>
</svg>