<?xml version="1.0" encoding="UTF-8"?>
<svg id="Capa_2" data-name="Capa 2" xmlns="http://www.w3.org/2000/svg" viewBox="0 0 111.7 234.19">
  <defs>
    <style>
      .cls-1 {
        fill: none;
        stroke: #8bec14;
        stroke-linecap: round;
        stroke-miterlimit: 10;
        stroke-width: 7px;
      }
    </style>
  </defs>
  <g id="Capa_11" data-name="Capa 11">
    <g>
      <path class="cls-1" d="M16.45,172.28c-5.27,17.1,19.58,27.89,40.58,28.68,10.44.26,20.97-.28,29.76-3.23,24.32-7.6,26.4-33.59,13.89-56.49-9.64-17.41-30.72-25.69-50.91-24.65-.71.01-1.43.03-2.14.04-29.86-.31-45.37-20.39-44.05-44.85.87-24.36,24.64-40.65,58.62-39.38,34,.96,38.7,25.51,26.15,38.25"/>
      <line class="cls-1" x1="56.94" y1="3.5" x2="56.94" y2="27.83"/>
      <line class="cls-1" x1="56.94" y1="40.78" x2="56.94" y2="109.05"/>
      <line class="cls-1" x1="56.94" y1="123.57" x2="56.94" y2="191.85"/>
      <line class="cls-1" x1="56.94" y1="206.36" x2="56.94" y2="230.69"/>
    </g>
  </g>
</svg>