<?xml version="1.0" encoding="UTF-8"?>
<svg id="Capa_2" data-name="Capa 2" xmlns="http://www.w3.org/2000/svg" viewBox="0 0 255.9 227.67">
  <defs>
    <style>
      .cls-1 {
        fill: none;
        stroke: #f09;
        stroke-linecap: round;
        stroke-linejoin: round;
        stroke-width: 7px;
      }
    </style>
  </defs>
  <g id="Capa_11" data-name="Capa 11">
    <g>
      <g>
        <line class="cls-1" x1="151.71" y1="82.57" x2="224.91" y2="38.32"/>
        <path class="cls-1" d="M237.01,128c-5.2-3.49-7.1-4.29-13.73-2.99-13.26,2.61-18.96,14.14-16.35,27.4s12.55,23.22,25.81,20.61c13.26-2.61,21.8-15.9,19.19-29.16,0,0-4.05-13.13-11.27-52.27-7.23-39.14-16.5-87.62-16.5-87.62l-.08.13-83.42,50.59s4.86,27.26,15.7,73.02,12.07,66.87,12.07,66.87c2.61,13.26-5.93,26.55-19.19,29.16-13.26,2.61-23.39-6.89-26.01-20.15-2.61-13.26,3.3-25.24,16.55-27.85,6.63-1.31,8.03-.23,13.23,3.26"/>
      </g>
      <path class="cls-1" d="M46.01,138c-4.05-5.62-7.44-7.99-14.82-9.19-14.77-2.4-24.79,9.43-27.19,24.2s3.74,26.87,18.5,29.27c14.77,2.4,28.76-8.1,31.16-22.87,0,0,3.33-21.46,14.17-64.21C78.67,52.45,78.75,3.5,78.75,3.5c16.54,40.87,36.74,51.85,40.87,66.41,2.26,7.95-.37,16.79-10.82,32.57"/>
    </g>
  </g>
</svg>