<?xml version="1.0" encoding="UTF-8"?>
<svg id="Capa_2" data-name="Capa 2" xmlns="http://www.w3.org/2000/svg" viewBox="0 0 230.05 230.05">
  <defs>
    <style>
      .cls-1 {
        fill: none;
      }

      .cls-1, .cls-2 {
        stroke: #fff;
        stroke-miterlimit: 10;
        stroke-width: 7px;
      }

      .cls-2 {
        fill: #0f0f21;
      }
    </style>
  </defs>
  <g id="Capa_11" data-name="Capa 11">
    <g>
      <circle class="cls-2" cx="115.03" cy="115.03" r="111.53"/>
      <path class="cls-1" d="M131.2,46.39c3.62-.1,10.6.21,13.97,1.15,5.79,1.62,9.67,6.87,8.85,12.54-.19,1.31.49,2.6,1.7,3.13,5.29,2.32,8.19,7.06,7.79,12.75-.1,1.48.74,2.82,2.06,3.49,5.94,3.01,9,10.3,5.79,16.23-.48.88-.21,2.02.63,2.56,7.23,4.71,7.98,14.6,1.5,19.97-1.33,1.11-1.88,2.86-1.32,4.5,2.54,7.38-1.79,14.23-9.54,17.04-5.61,2.04-11.2,1.83-16.94,2.02-1.54.05-2.49,1.72-1.72,3.06,6.56,11.43,8.62,27.22.13,37.96-5.53,6.99-16.72,11.39-24.06,4.41-6.03-5.73-.82-10.37,0-13.61,3.81-15.03-22.24-36.28-37.55-37.1-15.31-.82-31.48,4.49-34.15,4.03-.8-.14-2.53-1.23-2.81-2.01-1.23-3.37.54-62.78-.19-71.7.81-2.01,2.84-3.28,4.95-3.55,4.33-.55,16.02,3.23,32.02,0,16-3.23,31.31-16.38,48.9-16.87Z"/>
    </g>
  </g>
</svg>