<?xml version="1.0" encoding="UTF-8"?>
<svg id="Capa_2" data-name="Capa 2" xmlns="http://www.w3.org/2000/svg" viewBox="0 0 369.93 162.37">
  <defs>
    <style>
      .cls-1 {
        fill: none;
        stroke: #f9ee07;
        stroke-linecap: round;
        stroke-miterlimit: 10;
        stroke-width: 7px;
      }
    </style>
  </defs>
  <g id="Capa_11" data-name="Capa 11">
    <g>
      <path class="cls-1" d="M195.66,115.92c24.02,34.18,79.46,52.34,123.45,38.03,29.38-9.74,46.24-38.41,47.28-69.91.51-15.57-2.94-31.49-10.81-45.06C331.97-1.57,276.97-3.53,232.55,16.92c-31.86,15.11-49.39,40.97-47.82,67.94,0,.95.02,1.91.02,2.86-2.4,39.89-45.09,66.75-95.29,70.58C39.24,163.35,1.23,128.77,3.61,76.24,5.97,23.98,47.83-3.09,98.09,4.87c36.07,5.06,59.6,20.39,72.9,45.09"/>
      <g>
        <line class="cls-1" x1="88.74" y1="40.74" x2="88.74" y2="129.65"/>
        <line class="cls-1" x1="133.02" y1="85.2" x2="44.46" y2="85.2"/>
      </g>
      <g>
        <line class="cls-1" x1="297.25" y1="117.72" x2="278.07" y2="136.97"/>
        <line class="cls-1" x1="297.25" y1="136.97" x2="278.07" y2="117.72"/>
      </g>
      <rect class="cls-1" x="232.7" y="72.21" width="20.84" height="20.92"/>
      <ellipse class="cls-1" cx="332.27" cy="82.67" rx="10.42" ry="10.46"/>
      <polygon class="cls-1" points="298.68 49.77 276.85 50.1 287.47 30.96 298.68 49.77"/>
    </g>
  </g>
</svg>