<?xml version="1.0" encoding="UTF-8"?>
<svg id="Capa_2" data-name="Capa 2" xmlns="http://www.w3.org/2000/svg" viewBox="0 0 260.07 192.09">
  <defs>
    <style>
      .cls-1, .cls-2 {
        fill: none;
        stroke: #cd0636;
        stroke-miterlimit: 10;
        stroke-width: 7px;
      }

      .cls-2 {
        stroke-linecap: round;
      }
    </style>
  </defs>
  <g id="Capa_11" data-name="Capa 11">
    <g>
      <path class="cls-1" d="M245.12,3.72c8.86.78,12.89,9.49,10.99,18.18-5.54,25.28-25.74,61.19-85.49,93.59-58.49,31.72-75.29,21.18-88.57-.79-13.28-21.98,3.36-57.26,40.47-78.79S221.97,1.67,245.12,3.72Z"/>
      <path class="cls-2" d="M184.86,21.24s.86,13.6,10.55,28.62c9.69,15.02,18.98,19.22,18.98,19.22"/>
      <line class="cls-2" x1="6.42" y1="132.78" x2="57.45" y2="101.93"/>
      <line class="cls-2" x1="3.5" y1="164.01" x2="75.44" y2="120.53"/>
      <line class="cls-2" x1="32.51" y1="175.95" x2="83.54" y2="145.1"/>
      <path class="cls-2" d="M80.05,54.72s-54.66,13.67-52.27,3.96c2.39-9.71,44.53-25.38,57.68-38.35s31.16,5.51,31.16,5.51"/>
      <path class="cls-2" d="M133.53,144.01s-37.51,42.04-27.8,44.44,46.63-27.41,60.76-33.25,9.6-30.15,9.6-30.15"/>
      <ellipse class="cls-2" cx="124.4" cy="88.79" rx="23.64" ry="29.16" transform="translate(-27.99 77.15) rotate(-31.15)"/>
    </g>
  </g>
</svg>