<?xml version="1.0" encoding="UTF-8"?>
<svg id="Capa_2" data-name="Capa 2" xmlns="http://www.w3.org/2000/svg" viewBox="0 0 201.56 188.58">
  <defs>
    <style>
      .cls-1 {
        stroke-linecap: round;
        stroke-linejoin: round;
      }

      .cls-1, .cls-2 {
        fill: none;
        stroke: #7ae3ef;
        stroke-width: 7px;
      }

      .cls-2 {
        stroke-miterlimit: 10;
      }
    </style>
  </defs>
  <g id="Capa_11" data-name="Capa 11">
    <g>
      <ellipse class="cls-2" cx="100.78" cy="94.29" rx="97.28" ry="90.79"/>
      <g>
        <path class="cls-1" d="M190.55,111.02l-13.28-20.86c-.55-.72-.53-1.69.05-2.39l3.68-33.41"/>
        <path class="cls-1" d="M99.07,179.96l22.64-20.75c.55-.72,1.54-1.02,2.43-.74l39.77-3.77"/>
        <path class="cls-2" d="M138.89,92.56l-26.84,35.29c-.39.52-1.07.74-1.7.54l-43.52-13.51c-.65-.2-1.09-.8-1.09-1.48,0,0,.8-12.54,0-22.48-.8-9.94,0-21.08,0-21.08,0-.68.44-1.28,1.09-1.48l43.52-13.51c.62-.19,1.3.02,1.7.54,0,0,6.9,7.24,13,17.1s13.84,18.19,13.84,18.19c.42.56.42,1.32,0,1.88Z"/>
        <path class="cls-1" d="M157.78,28.42l-32.5-5.15c-.89.25-1.85-.05-2.38-.76l-23.82-13.21"/>
        <path class="cls-1" d="M65.62,18.86l-23.89,29.35c-.02.86-2.56,2.59-3.45,2.84l-19.76,6.04"/>
        <path class="cls-1" d="M15.11,117.84l22.45,11.11c.9.28,1.5,1.07,1.47,1.96l15.67,34.04"/>
        <line class="cls-1" x1="45.86" y1="53.82" x2="59.12" y2="63.54"/>
        <line class="cls-1" x1="45.86" y1="126.26" x2="58.17" y2="119.19"/>
        <line class="cls-1" x1="119.69" y1="150.11" x2="114.01" y2="135.98"/>
        <line class="cls-1" x1="147.14" y1="90.92" x2="168.91" y2="90.92"/>
        <line class="cls-1" x1="114.01" y1="48.52" x2="121.59" y2="29.97"/>
      </g>
    </g>
  </g>
</svg>